<?xml version="1.0" encoding="UTF-8" standalone="no"?>
<!-- Created with Inkscape (http://www.inkscape.org/) -->

<svg
   xmlns="http://www.w3.org/2000/svg"
   width="60"
   height="60"
   viewBox="0 0 60.000003 59.999999"
  >
  
  <g   
     transform="translate(-11.145513,-6.3548778)">
    <path
       d="m 31.924171,52.168344 0,-27.612275 -9.177809,0 0,27.612275 9.177809,0 z M 27.335227,20.78608 c 3.200492,0 5.19252,-2.120312 5.19252,-4.770092 -0.05969,-2.709424 -1.992028,-4.770908 -5.131805,-4.770908 -3.139455,0 -5.192117,2.061484 -5.192117,4.770908 0,2.64978 1.991625,4.770092 5.071596,4.770092 l 0.05967,0 z"
       style="fill-opacity:1;fill-rule:evenodd;stroke:none"
       id="path28"
        />
    <path
       d="m 34.089744,52.190867 9.110883,0 0,-15.307547 c 0,-0.819236 0.05924,-1.63766 0.299785,-2.223293 0.658635,-1.63685 2.15776,-3.332101 4.674677,-3.332101 3.296814,0 4.615628,2.513677 4.615628,6.198617 l 0,14.664324 9.110145,0 0,-15.717166 c 0,-8.419474 -4.494849,-12.337206 -10.489143,-12.337206 -4.91509,0 -7.072844,2.747279 -8.271684,4.618542 l 0.06086,0 0,-3.975322 -9.110885,0 c 0.119564,2.572077 0,27.411152 0,27.411152 z"
       style="fill-opacity:1;fill-rule:evenodd;stroke:none"
       id="path30"
        />
  </g>
</svg>
